<svg xmlns="http://www.w3.org/2000/svg" viewBox="0 0 64 64"><path fill="#f15743" d="M34.5 32.484h-3a.5.5 0 0 1-.5-.5v-2a.5.5 0 0 1 .5-.5h3a.5.5 0 0 1 0 1H32v1h2.5a.5.5 0 0 1 0 1z"/><path fill="#f15743" d="M34.5 34.484h-3a.5.5 0 0 1 0-1H34v-1h-2.5a.5.5 0 0 1 0-1h3a.5.5 0 0 1 .5.5v2a.5.5 0 0 1-.5.5zM29.5 34.516H28a.5.5 0 0 1 0-1h1v-1h-.5a.5.5 0 0 1 0-1h1a.5.5 0 0 1 .5.5v2a.5.5 0 0 1-.5.5zM39.5 30.484h-3a.5.5 0 0 1 0-1h3a.5.5 0 0 1 0 1z"/><path fill="#f15743" d="M38 34.484a.5.5 0 0 1-.5-.5v-4a.5.5 0 0 1 1 0v4a.5.5 0 0 1-.5.5zM29 34.516h-2.5a.5.5 0 0 1-.5-.5v-4a.5.5 0 0 1 .5-.5h3a.5.5 0 0 1 0 1H27v3h2a.5.5 0 0 1 0 1z"/><path fill="#f15743" d="M33 43c-6.065 0-11-4.935-11-11s4.935-11 11-11 11 4.935 11 11-4.935 11-11 11zm0-21c-5.514 0-10 4.486-10 10s4.486 10 10 10 10-4.486 10-10-4.486-10-10-10z"/><path fill="#f15743" d="M26.771 26.716a.5.5 0 0 1-.366-.84 8.932 8.932 0 0 1 2.998-2.125A8.939 8.939 0 0 1 33 23a.5.5 0 0 1 0 1 7.956 7.956 0 0 0-3.197.667 7.94 7.94 0 0 0-2.665 1.889.498.498 0 0 1-.367.16zM25.334 28.827a.5.5 0 0 1-.45-.717c.064-.134.132-.268.204-.398.071-.132.146-.262.224-.39a.5.5 0 0 1 .854.522 7.332 7.332 0 0 0-.379.7.504.504 0 0 1-.453.283z"/><path fill="#f15743" d="M33 48c-8.822 0-16-7.178-16-16s7.178-16 16-16 16 7.178 16 16-7.178 16-16 16zm0-31c-8.271 0-15 6.729-15 15s6.729 15 15 15 15-6.729 15-15-6.729-15-15-15z"/><path fill="#2c4355" d="M11.5 46c-.827 0-1.5-.673-1.5-1.5V28.328c0-.395-.16-.781-.439-1.061l-.828-.828A2.479 2.479 0 0 1 8 24.672V18.5a.5.5 0 0 1 1 0v6.172c0 .395.16.781.439 1.061l.828.828c.473.472.733 1.099.733 1.767V44.5a.5.5 0 0 0 1 0V28.328c0-.668.26-1.295.732-1.768l.828-.828c.28-.279.44-.666.44-1.06V18.5a.5.5 0 0 1 1 0v6.172c0 .668-.26 1.295-.732 1.768l-.828.828c-.28.279-.44.666-.44 1.06V44.5c0 .827-.673 1.5-1.5 1.5zM52.5 46c-.827 0-1.5-.673-1.5-1.5v-11a.5.5 0 0 1 .5-.5h2a.5.5 0 0 1 .5.5v11c0 .827-.673 1.5-1.5 1.5zM52 34v10.5a.5.5 0 0 0 1 0V34h-1z"/><path fill="#2c4355" d="M11.5 26a.5.5 0 0 1-.5-.5v-7a.5.5 0 0 1 1 0v7a.5.5 0 0 1-.5.5zM55.5 34h-4a.5.5 0 0 1-.5-.5v-15a.5.5 0 0 1 .5-.5c2.481 0 4.5 2.019 4.5 4.5v11a.5.5 0 0 1-.5.5zM52 33h3V22.5a3.507 3.507 0 0 0-3-3.465V33z"/></svg>